<svg xmlns="http://www.w3.org/2000/svg" width="256" height="256" viewBox="0 0 100 100"><rect width="100" height="100" rx="50" fill="#fefeff"></rect><path fill="#ff6f08" d="M51.21 50L51.21 50Q51.21 57.02 49.23 62.38Q47.26 67.73 43.74 71.28Q40.23 74.84 35.46 76.69Q30.70 78.53 25.11 78.53L25.11 78.53Q19.54 78.53 14.77 76.69Q10.00 74.84 6.49 71.28Q2.98 67.73 1.00 62.38Q-0.98 57.02-0.98 50L-0.98 50Q-0.98 42.98 1.04 37.67Q3.07 32.36 6.58 28.76Q10.09 25.16 14.86 23.32Q19.63 21.47 25.11 21.47L25.11 21.47Q30.60 21.47 35.38 23.32Q40.14 25.16 43.66 28.76Q47.16 32.36 49.19 37.67Q51.21 42.98 51.21 50ZM43.74 50L43.74 50Q43.74 39.20 38.66 33.44Q33.58 27.68 25.11 27.68L25.11 27.68Q20.89 27.68 17.46 29.16Q14.05 30.65 11.62 33.48Q9.19 36.32 7.88 40.46Q6.58 44.60 6.58 50L6.58 50Q6.58 60.80 11.62 66.56Q16.66 72.32 25.11 72.32L25.11 72.32Q33.66 72.32 38.70 66.56Q43.74 60.80 43.74 50ZM98.19 28.85L83.34 28.85L83.34 77.18Q82.89 77.36 81.95 77.58Q81.00 77.81 80.02 77.81L80.02 77.81Q76.06 77.81 76.06 74.48L76.06 74.48L76.06 28.85L59.23 28.85Q58.95 28.40 58.69 27.63Q58.41 26.87 58.41 25.88L58.41 25.88Q58.41 24.35 59.13 23.50Q59.85 22.64 61.20 22.64L61.20 22.64L100.17 22.64Q100.44 23.09 100.72 23.86Q100.98 24.62 100.98 25.52L100.98 25.52Q100.98 27.05 100.27 27.95Q99.54 28.85 98.19 28.85L98.19 28.85Z"></path></svg>